<svg xmlns="http://www.w3.org/2000/svg" viewBox="0 0 959.97 212.73"><defs><style>.cls-1{fill:#b71c1c;}</style></defs><title>Asset 2</title><g id="Layer_2" data-name="Layer 2"><g id="Layer_1-2" data-name="Layer 1"><path class="cls-1" d="M149.15,14.47,134.26,60.94c8.53,1.17,16.75,2,24.86,3.48a124.93,124.93,0,0,1,42.49,15.47c2.86,1.7,4.76,1.55,7.55-.29A29,29,0,0,1,243.77,126c-2.61,2.21-3.31,4.19-3.15,7.55,1.08,22-9.16,38.76-25.67,52.1-19,15.34-41.32,22.69-65.17,25.65-24.62,3.05-48.9,1.22-72.56-6.71-20.28-6.8-38.44-16.79-51.5-34.37C17.6,159.3,13.43,147,14.31,133.33a6.87,6.87,0,0,0-3-6.67c-12.69-10-15-27.45-5.55-40.15a28.92,28.92,0,0,1,40-6.4c2.2,1.52,3.7,1.93,6.16.46C72.47,68.31,95,62.82,118.6,61.71c4.28-.2,5.91-1.72,7.1-5.62,4.73-15.44,9.79-30.78,14.77-46.15,2-6.08,3.24-6.75,9.55-5.25,12.31,2.95,24.64,5.83,36.9,8.93,2.95.75,4.62.57,6.49-2.33C200,1.1,212.08-2.6,222.69,1.87a24,24,0,0,1-9.14,46.22c-11.68,0-21.26-8.31-23.77-20.34-.32-1.56-1.81-3.74-3.16-4.09C174.41,20.45,162.09,17.59,149.15,14.47Zm-20.64,188c4,0,8,.21,12,0,26.5-1.66,50.56-9.77,71-27.19,25.09-21.37,26.22-52,2.15-74.24a95.93,95.93,0,0,0-22.92-15.76C157.07,68.9,121.86,67.25,86,76.69c-18,4.74-34.26,13-47.36,26.57-16.22,16.81-19.67,38.39-8,56.6a76.4,76.4,0,0,0,17.87,19.21C72.06,196.94,99.61,202.42,128.5,202.46ZM213.65,38.31a14.39,14.39,0,0,0,14.13-14,14.26,14.26,0,1,0-28.51-.28A14.48,14.48,0,0,0,213.65,38.31ZM40.34,88.4C30.88,82,19.53,84,13.4,92.65a18.41,18.41,0,0,0,4,25.86C22.14,106.42,30.15,96.85,40.34,88.4Zm197,29.94c8.16-7.26,9.22-18.28,2.95-26.37S223,82,214.23,88.26C224.3,96.35,232.34,106,237.38,118.34Z"/><path class="cls-1" d="M645.24,93.88c.12-2.47.26-4,.26-5.62q0-23.75,0-47.49c0-1.66-.47-3.73.33-4.9,1.23-1.81,3.38-4.16,5.11-4.14s3.48,2.63,4.93,4.35c.5.6.14,1.93.14,2.93,0,29.16.12,58.32,0,87.49a49.53,49.53,0,0,1-42.6,48.65C590.15,178.54,567,164,559.61,141.25A50.09,50.09,0,0,1,579.8,83.83c19-12.32,42.92-10.11,60.48,5.58C641.71,90.69,643.13,92,645.24,93.88Zm-37.83-6.62c-21.94-.17-39.4,16.67-39.7,38.27-.29,21,17.72,39.41,38.84,39.6,21.26.19,38.85-17.54,38.92-39.24A38,38,0,0,0,607.42,87.27Z"/><path class="cls-1" d="M785.53,94.21V87q0-24.5,0-49c0-3.5,1.13-6.46,5.23-6.53S796,34.21,796,37.82c0,30.16.34,60.33-.16,90.48-.41,24.43-21,45.58-44.76,47.07-27.31,1.71-49.26-16-53.56-43.14-3.81-24.06,12.53-48.58,36.63-54.69,17.59-4.46,32.88.34,46.3,12.06C781.83,90.78,783.13,92,785.53,94.21Zm-.05,31.74a38.05,38.05,0,0,0-38-38.69c-21.92-.2-39.6,16.81-39.74,38.23s17.94,39.69,39.28,39.63C768.09,165.06,785.37,147.47,785.48,125.95Z"/><path class="cls-1" d="M456.85,155.91c13.32,12.27,36.65,11.31,50.62-1.69a15.14,15.14,0,0,0,1.76-1.77c2.53-3.3,5.49-5.1,9.3-2.08,2.76,2.19,2.14,6.75-1.31,10-15,14.08-32.5,19-52.06,12.45-19.23-6.41-30.58-20.49-33.3-40.55-3.63-26.75,17-52.79,43.35-55,16.83-1.4,30.84,3.38,42.18,15.86,5,5.55,4.9,7.41-.77,12.2q-26.92,22.74-53.86,45.45C460.85,152.4,459,154.05,456.85,155.91Zm50.67-57.15a38.12,38.12,0,0,0-54.38.67c-15.35,15.89-12.47,38-3.46,48Z"/><path class="cls-1" d="M915,75.84H946c11.81,0,14.34.95,13.95,5.84-.42,5.28-1.81,5.79-13.68,5.57-10.14-.19-20.3,0-30.81,0-.15,1.5-.39,2.76-.39,4,0,12-.12,24,0,36a38,38,0,0,0,35.11,37.46c6.11.49,9.11,2.5,8.78,5.91s-3.74,5.11-9.65,4.69c-24.3-1.74-44.71-22.09-45.24-46.51-.62-29-.17-58-.24-86.93,0-4.13,1.92-6.38,6-6.28s5.27,2.79,5.25,6.46c0,9.33,0,18.65,0,28C915,71.77,915,73.55,915,75.84Z"/><path class="cls-1" d="M330,93.93c18.88-19.8,40-22.67,63.47-13.25A20.28,20.28,0,0,1,396.2,82c3.82,2.24,5.22,5.78,3.19,8.63-2.51,3.52-5.8,3.49-9.21,1.34-10.43-6.59-21.59-7.31-33.05-3.66a38.81,38.81,0,0,0-27,36.44c-.22,14.15-.05,28.31-.07,42.46,0,5.68-1.82,8.26-5.69,8.21s-6-2.73-6-8q0-42,0-83.92c0-5,2.43-8.24,6.22-7.87,4.7.46,5.7,3.81,5.53,7.92C329.94,86.58,330,89.69,330,93.93Z"/><path class="cls-1" d="M844,125c0-14.5,0-29,0-43.49,0-3.85.53-7.3,5.36-7.27,4.57,0,5.7,3.15,5.7,7.14q0,43.49,0,87c0,4-1.2,7.26-5.56,7.36-4.54.11-5.54-3.24-5.52-7.23C844.07,154,844,139.54,844,125Z"/><path class="cls-1" d="M831.81,31.06a17.18,17.18,0,0,1,17-17.28c8.92.09,16.9,8.13,16.93,17,0,9.2-8,17.3-17.19,17.26S831.9,40.27,831.81,31.06Z"/><path class="cls-1" d="M106.1,122.78a17,17,0,1,1-16.77-17C98.39,105.81,106,113.53,106.1,122.78Z"/><path class="cls-1" d="M182.75,123.14c-.15,9.15-8.53,17.25-17.5,16.92a17.58,17.58,0,0,1-16.54-17.36,17.33,17.33,0,0,1,17-16.88C174.84,105.78,182.9,114,182.75,123.14Z"/><path class="cls-1" d="M128.7,185.93c-14.32-.23-27-1.75-37.86-9.73-1.34-1-3.13-1.94-3.62-3.31C86.52,171,86,167.7,87,166.8c1.35-1.22,5.09-1.81,6.33-.82,15.17,12.08,32.54,11.57,50,8.5,6.11-1.07,11.85-4.77,17.47-7.82,2.9-1.57,5.37-3.14,7.89-.16s1.06,5.6-1.46,7.77c-8.29,7.15-18.27,10-28.89,11.06C134.68,185.7,131,185.79,128.7,185.93Z"/></g></g></svg>